<svg xmlns="http://www.w3.org/2000/svg" xmlns:xlink="http://www.w3.org/1999/xlink" width="500" zoomAndPan="magnify" viewBox="0 0 375 374.999991" height="500" preserveAspectRatio="xMidYMid meet" version="1.0"><path fill="#35d2bf" d="M 187.484375 225.074219 C 186.386719 225.074219 185.292969 225.125 184.203125 225.234375 C 183.113281 225.339844 182.03125 225.5 180.953125 225.714844 C 179.878906 225.929688 178.816406 226.195312 177.769531 226.511719 C 176.722656 226.828125 175.691406 227.199219 174.675781 227.617188 C 173.664062 228.035156 172.675781 228.503906 171.707031 229.019531 C 170.742188 229.539062 169.804688 230.101562 168.890625 230.707031 C 167.980469 231.316406 167.101562 231.96875 166.253906 232.664062 C 165.40625 233.359375 164.597656 234.09375 163.820312 234.871094 C 163.046875 235.644531 162.308594 236.457031 161.613281 237.300781 C 160.917969 238.148438 160.265625 239.027344 159.660156 239.941406 C 159.050781 240.851562 158.488281 241.789062 157.96875 242.757812 C 157.453125 243.722656 156.984375 244.710938 156.566406 245.722656 C 156.144531 246.738281 155.777344 247.765625 155.457031 248.816406 C 155.140625 249.863281 154.875 250.925781 154.660156 252 C 154.445312 253.074219 154.285156 254.160156 154.179688 255.25 C 154.070312 256.339844 154.015625 257.433594 154.015625 258.53125 C 154.015625 259.625 154.070312 260.71875 154.175781 261.808594 C 154.285156 262.898438 154.445312 263.984375 154.660156 265.058594 C 154.871094 266.132812 155.140625 267.195312 155.457031 268.242188 C 155.773438 269.292969 156.144531 270.324219 156.5625 271.335938 C 156.980469 272.347656 157.449219 273.335938 157.964844 274.304688 C 158.484375 275.269531 159.046875 276.207031 159.65625 277.121094 C 160.261719 278.03125 160.914062 278.910156 161.609375 279.757812 C 162.304688 280.605469 163.039062 281.417969 163.816406 282.191406 C 164.589844 282.964844 165.402344 283.703125 166.25 284.398438 C 167.09375 285.09375 167.972656 285.746094 168.886719 286.351562 C 169.796875 286.960938 170.734375 287.523438 171.703125 288.042969 C 172.667969 288.558594 173.65625 289.027344 174.671875 289.445312 C 175.683594 289.863281 176.714844 290.234375 177.761719 290.550781 C 178.8125 290.871094 179.871094 291.136719 180.949219 291.351562 C 182.023438 291.5625 183.105469 291.726562 184.195312 291.832031 C 185.285156 291.941406 186.378906 291.992188 187.476562 291.992188 C 188.570312 291.992188 189.664062 291.941406 190.753906 291.832031 C 191.847656 291.726562 192.929688 291.566406 194.003906 291.351562 C 195.078125 291.136719 196.140625 290.871094 197.1875 290.554688 C 198.238281 290.234375 199.269531 289.867188 200.28125 289.445312 C 201.292969 289.027344 202.28125 288.558594 203.25 288.042969 C 204.214844 287.527344 205.15625 286.964844 206.066406 286.355469 C 206.976562 285.746094 207.855469 285.09375 208.703125 284.398438 C 209.550781 283.703125 210.363281 282.96875 211.136719 282.195312 C 211.910156 281.417969 212.648438 280.609375 213.34375 279.761719 C 214.039062 278.914062 214.691406 278.035156 215.296875 277.125 C 215.90625 276.210938 216.46875 275.273438 216.988281 274.308594 C 217.503906 273.339844 217.972656 272.351562 218.390625 271.339844 C 218.808594 270.324219 219.179688 269.296875 219.496094 268.246094 C 219.816406 267.199219 220.082031 266.136719 220.296875 265.0625 C 220.507812 263.984375 220.667969 262.902344 220.777344 261.8125 C 220.882812 260.722656 220.9375 259.628906 220.9375 258.53125 C 220.9375 257.4375 220.882812 256.34375 220.773438 255.253906 C 220.664062 254.164062 220.503906 253.082031 220.289062 252.007812 C 220.074219 250.933594 219.808594 249.871094 219.488281 248.824219 C 219.171875 247.777344 218.800781 246.746094 218.382812 245.734375 C 217.960938 244.722656 217.496094 243.734375 216.976562 242.769531 C 216.460938 241.800781 215.898438 240.863281 215.289062 239.953125 C 214.679688 239.042969 214.027344 238.164062 213.332031 237.316406 C 212.640625 236.46875 211.902344 235.660156 211.128906 234.886719 C 210.355469 234.109375 209.542969 233.375 208.699219 232.679688 C 207.851562 231.984375 206.972656 231.332031 206.0625 230.722656 C 205.152344 230.117188 204.214844 229.550781 203.246094 229.035156 C 202.28125 228.519531 201.292969 228.050781 200.28125 227.628906 C 199.269531 227.210938 198.238281 226.839844 197.191406 226.523438 C 196.144531 226.203125 195.082031 225.9375 194.007812 225.722656 C 192.933594 225.507812 191.851562 225.347656 190.761719 225.238281 C 189.671875 225.128906 188.578125 225.074219 187.484375 225.074219 Z M 187.484375 289.699219 C 186.460938 289.699219 185.445312 289.648438 184.429688 289.546875 C 183.410156 289.449219 182.402344 289.296875 181.402344 289.097656 C 180.398438 288.898438 179.410156 288.652344 178.433594 288.355469 C 177.457031 288.058594 176.496094 287.71875 175.554688 287.328125 C 174.609375 286.9375 173.6875 286.5 172.789062 286.019531 C 171.886719 285.539062 171.011719 285.011719 170.164062 284.445312 C 169.316406 283.878906 168.496094 283.273438 167.707031 282.625 C 166.917969 281.976562 166.160156 281.292969 165.441406 280.570312 C 164.71875 279.847656 164.03125 279.09375 163.386719 278.304688 C 162.738281 277.515625 162.128906 276.695312 161.5625 275.847656 C 160.996094 275 160.472656 274.125 159.988281 273.222656 C 159.507812 272.324219 159.070312 271.402344 158.679688 270.457031 C 158.289062 269.515625 157.945312 268.554688 157.652344 267.578125 C 157.355469 266.601562 157.105469 265.613281 156.90625 264.609375 C 156.707031 263.609375 156.558594 262.601562 156.457031 261.585938 C 156.359375 260.570312 156.308594 259.550781 156.308594 258.53125 C 156.308594 257.507812 156.359375 256.488281 156.457031 255.472656 C 156.558594 254.457031 156.707031 253.449219 156.90625 252.449219 C 157.105469 251.445312 157.351562 250.457031 157.648438 249.480469 C 157.945312 248.503906 158.289062 247.542969 158.679688 246.601562 C 159.070312 245.65625 159.507812 244.734375 159.988281 243.835938 C 160.46875 242.933594 160.992188 242.058594 161.558594 241.210938 C 162.128906 240.363281 162.734375 239.542969 163.382812 238.753906 C 164.03125 237.964844 164.714844 237.207031 165.4375 236.488281 C 166.160156 235.765625 166.914062 235.082031 167.703125 234.433594 C 168.492188 233.785156 169.3125 233.175781 170.160156 232.609375 C 171.007812 232.042969 171.882812 231.519531 172.785156 231.039062 C 173.683594 230.554688 174.605469 230.121094 175.550781 229.730469 C 176.492188 229.339844 177.453125 228.996094 178.429688 228.699219 C 179.40625 228.402344 180.398438 228.15625 181.398438 227.957031 C 182.398438 227.757812 183.40625 227.609375 184.425781 227.507812 C 185.441406 227.40625 186.457031 227.359375 187.480469 227.359375 C 188.5 227.359375 189.519531 227.40625 190.535156 227.507812 C 191.550781 227.609375 192.558594 227.757812 193.5625 227.957031 C 194.5625 228.15625 195.550781 228.402344 196.527344 228.699219 C 197.503906 228.996094 198.464844 229.339844 199.410156 229.730469 C 200.351562 230.121094 201.273438 230.558594 202.171875 231.039062 C 203.074219 231.519531 203.949219 232.046875 204.796875 232.613281 C 205.644531 233.179688 206.464844 233.789062 207.253906 234.433594 C 208.042969 235.082031 208.796875 235.769531 209.519531 236.488281 C 210.242188 237.210938 210.925781 237.96875 211.574219 238.757812 C 212.222656 239.546875 212.828125 240.363281 213.398438 241.214844 C 213.964844 242.0625 214.488281 242.9375 214.96875 243.839844 C 215.449219 244.738281 215.886719 245.660156 216.277344 246.605469 C 216.667969 247.546875 217.011719 248.507812 217.308594 249.484375 C 217.601562 250.460938 217.851562 251.449219 218.050781 252.453125 C 218.25 253.453125 218.398438 254.460938 218.496094 255.476562 C 218.597656 256.492188 218.648438 257.511719 218.648438 258.53125 C 218.644531 259.554688 218.59375 260.570312 218.492188 261.585938 C 218.390625 262.601562 218.242188 263.609375 218.039062 264.609375 C 217.839844 265.609375 217.59375 266.597656 217.296875 267.574219 C 216.996094 268.550781 216.652344 269.507812 216.261719 270.449219 C 215.871094 271.394531 215.433594 272.3125 214.953125 273.214844 C 214.472656 274.113281 213.949219 274.988281 213.382812 275.835938 C 212.8125 276.683594 212.207031 277.5 211.558594 278.289062 C 210.910156 279.078125 210.226562 279.832031 209.503906 280.554688 C 208.785156 281.273438 208.03125 281.960938 207.242188 282.605469 C 206.453125 283.253906 205.632812 283.859375 204.785156 284.429688 C 203.9375 284.996094 203.0625 285.519531 202.164062 286 C 201.265625 286.480469 200.34375 286.917969 199.402344 287.308594 C 198.460938 287.699219 197.5 288.042969 196.523438 288.339844 C 195.546875 288.636719 194.558594 288.886719 193.558594 289.085938 C 192.558594 289.285156 191.550781 289.4375 190.535156 289.539062 C 189.519531 289.640625 188.503906 289.691406 187.484375 289.691406 Z M 187.484375 289.699219 " fill-opacity="1" fill-rule="nonzero"/><path fill="#35d2bf" d="M 187.484375 206.742188 C 186.046875 206.742188 184.609375 206.8125 183.179688 206.953125 C 181.75 207.09375 180.328125 207.304688 178.917969 207.585938 C 177.507812 207.863281 176.113281 208.214844 174.738281 208.628906 C 173.363281 209.046875 172.011719 209.53125 170.683594 210.082031 C 169.355469 210.632812 168.054688 211.246094 166.785156 211.921875 C 165.519531 212.601562 164.285156 213.339844 163.089844 214.136719 C 161.894531 214.9375 160.742188 215.792969 159.628906 216.703125 C 158.519531 217.617188 157.453125 218.582031 156.4375 219.597656 C 155.421875 220.613281 154.457031 221.675781 153.542969 222.789062 C 152.632812 223.902344 151.777344 225.054688 150.976562 226.25 C 150.179688 227.445312 149.441406 228.675781 148.761719 229.945312 C 148.085938 231.210938 147.46875 232.511719 146.921875 233.839844 C 146.371094 235.167969 145.886719 236.519531 145.46875 237.894531 C 145.050781 239.273438 144.703125 240.664062 144.421875 242.074219 C 144.140625 243.484375 143.929688 244.90625 143.789062 246.335938 C 143.648438 247.769531 143.578125 249.203125 143.578125 250.640625 C 143.578125 252.078125 143.648438 253.511719 143.789062 254.941406 C 143.929688 256.375 144.140625 257.792969 144.421875 259.203125 C 144.699219 260.613281 145.050781 262.007812 145.46875 263.382812 C 145.882812 264.761719 146.367188 266.113281 146.917969 267.441406 C 147.46875 268.769531 148.082031 270.066406 148.761719 271.335938 C 149.4375 272.605469 150.175781 273.835938 150.976562 275.03125 C 151.773438 276.226562 152.628906 277.378906 153.542969 278.492188 C 154.453125 279.601562 155.417969 280.667969 156.433594 281.683594 C 157.453125 282.699219 158.515625 283.664062 159.628906 284.578125 C 160.738281 285.488281 161.894531 286.34375 163.089844 287.144531 C 164.285156 287.941406 165.515625 288.679688 166.785156 289.359375 C 168.050781 290.035156 169.351562 290.652344 170.679688 291.199219 C 172.007812 291.75 173.359375 292.234375 174.734375 292.652344 C 176.109375 293.070312 177.503906 293.417969 178.914062 293.699219 C 180.324219 293.980469 181.746094 294.191406 183.175781 294.332031 C 184.605469 294.472656 186.042969 294.542969 187.480469 294.542969 C 188.917969 294.542969 190.351562 294.472656 191.78125 294.332031 C 193.214844 294.1875 194.632812 293.980469 196.042969 293.699219 C 197.453125 293.417969 198.847656 293.066406 200.222656 292.652344 C 201.597656 292.234375 202.953125 291.75 204.28125 291.199219 C 205.609375 290.648438 206.90625 290.035156 208.175781 289.355469 C 209.441406 288.679688 210.675781 287.941406 211.871094 287.140625 C 213.066406 286.34375 214.21875 285.488281 215.332031 284.574219 C 216.441406 283.664062 217.503906 282.699219 218.523438 281.679688 C 219.539062 280.664062 220.503906 279.601562 221.414062 278.488281 C 222.328125 277.378906 223.183594 276.222656 223.980469 275.027344 C 224.78125 273.832031 225.519531 272.601562 226.195312 271.332031 C 226.875 270.0625 227.488281 268.765625 228.039062 267.4375 C 228.585938 266.109375 229.070312 264.757812 229.488281 263.378906 C 229.90625 262.003906 230.253906 260.613281 230.535156 259.203125 C 230.816406 257.789062 231.027344 256.371094 231.167969 254.9375 C 231.308594 253.507812 231.378906 252.074219 231.378906 250.636719 C 231.375 249.199219 231.304688 247.765625 231.160156 246.335938 C 231.019531 244.90625 230.808594 243.484375 230.527344 242.078125 C 230.242188 240.667969 229.894531 239.273438 229.476562 237.898438 C 229.058594 236.523438 228.574219 235.175781 228.023438 233.847656 C 227.472656 232.519531 226.859375 231.222656 226.179688 229.953125 C 225.5 228.6875 224.761719 227.457031 223.964844 226.261719 C 223.164062 225.066406 222.308594 223.914062 221.398438 222.804688 C 220.488281 221.691406 219.523438 220.628906 218.507812 219.613281 C 217.488281 218.597656 216.425781 217.632812 215.316406 216.722656 C 214.203125 215.808594 213.050781 214.953125 211.859375 214.15625 C 210.664062 213.355469 209.433594 212.617188 208.164062 211.941406 C 206.898438 211.261719 205.601562 210.648438 204.273438 210.097656 C 202.945312 209.546875 201.59375 209.0625 200.21875 208.644531 C 198.84375 208.226562 197.453125 207.875 196.042969 207.59375 C 194.632812 207.3125 193.214844 207.101562 191.785156 206.957031 C 190.355469 206.816406 188.921875 206.742188 187.484375 206.742188 Z M 187.484375 292.246094 C 186.121094 292.246094 184.761719 292.179688 183.40625 292.046875 C 182.046875 291.914062 180.703125 291.710938 179.367188 291.445312 C 178.027344 291.179688 176.707031 290.851562 175.402344 290.457031 C 174.101562 290.058594 172.816406 289.601562 171.558594 289.082031 C 170.300781 288.558594 169.070312 287.976562 167.867188 287.335938 C 166.664062 286.691406 165.496094 285.992188 164.363281 285.234375 C 163.230469 284.480469 162.136719 283.667969 161.085938 282.804688 C 160.03125 281.9375 159.023438 281.023438 158.058594 280.0625 C 157.09375 279.097656 156.179688 278.089844 155.316406 277.035156 C 154.453125 275.984375 153.640625 274.890625 152.882812 273.757812 C 152.125 272.625 151.425781 271.457031 150.785156 270.253906 C 150.140625 269.054688 149.558594 267.824219 149.035156 266.5625 C 148.515625 265.304688 148.054688 264.023438 147.660156 262.71875 C 147.265625 261.414062 146.933594 260.09375 146.667969 258.757812 C 146.402344 257.421875 146.203125 256.074219 146.070312 254.71875 C 145.933594 253.363281 145.867188 252.003906 145.867188 250.640625 C 145.867188 249.277344 145.933594 247.917969 146.066406 246.5625 C 146.203125 245.207031 146.402344 243.859375 146.667969 242.523438 C 146.933594 241.183594 147.261719 239.863281 147.660156 238.5625 C 148.054688 237.257812 148.511719 235.976562 149.035156 234.714844 C 149.554688 233.457031 150.136719 232.226562 150.78125 231.023438 C 151.421875 229.824219 152.121094 228.65625 152.878906 227.523438 C 153.636719 226.386719 154.445312 225.296875 155.3125 224.242188 C 156.175781 223.1875 157.089844 222.179688 158.054688 221.214844 C 159.015625 220.253906 160.023438 219.339844 161.078125 218.472656 C 162.132812 217.609375 163.226562 216.796875 164.359375 216.039062 C 165.492188 215.285156 166.660156 214.582031 167.859375 213.941406 C 169.0625 213.296875 170.292969 212.714844 171.550781 212.195312 C 172.8125 211.671875 174.09375 211.214844 175.398438 210.820312 C 176.699219 210.421875 178.019531 210.09375 179.359375 209.828125 C 180.695312 209.5625 182.039062 209.359375 183.398438 209.226562 C 184.753906 209.09375 186.113281 209.027344 187.476562 209.027344 C 188.839844 209.027344 190.199219 209.09375 191.554688 209.226562 C 192.910156 209.359375 194.257812 209.558594 195.59375 209.824219 C 196.929688 210.089844 198.25 210.421875 199.554688 210.816406 C 200.859375 211.214844 202.140625 211.671875 203.398438 212.195312 C 204.660156 212.714844 205.890625 213.296875 207.089844 213.9375 C 208.292969 214.582031 209.460938 215.28125 210.59375 216.039062 C 211.726562 216.796875 212.820312 217.605469 213.875 218.472656 C 214.925781 219.335938 215.933594 220.25 216.898438 221.214844 C 217.863281 222.175781 218.777344 223.183594 219.640625 224.238281 C 220.507812 225.292969 221.316406 226.386719 222.074219 227.519531 C 222.832031 228.652344 223.53125 229.820312 224.171875 231.019531 C 224.816406 232.222656 225.398438 233.453125 225.917969 234.710938 C 226.441406 235.972656 226.898438 237.253906 227.296875 238.558594 C 227.691406 239.863281 228.023438 241.183594 228.289062 242.519531 C 228.554688 243.855469 228.753906 245.203125 228.886719 246.558594 C 229.019531 247.914062 229.085938 249.273438 229.085938 250.636719 C 229.085938 252 229.015625 253.355469 228.882812 254.710938 C 228.746094 256.066406 228.546875 257.414062 228.28125 258.75 C 228.011719 260.085938 227.679688 261.40625 227.285156 262.707031 C 226.890625 264.011719 226.429688 265.292969 225.90625 266.550781 C 225.386719 267.808594 224.804688 269.039062 224.160156 270.238281 C 223.519531 271.441406 222.820312 272.609375 222.0625 273.742188 C 221.304688 274.871094 220.492188 275.964844 219.628906 277.019531 C 218.765625 278.070312 217.851562 279.078125 216.886719 280.042969 C 215.925781 281.007812 214.917969 281.921875 213.863281 282.785156 C 212.8125 283.648438 211.71875 284.460938 210.585938 285.21875 C 209.453125 285.972656 208.289062 286.675781 207.085938 287.316406 C 205.886719 287.960938 204.65625 288.542969 203.398438 289.0625 C 202.140625 289.585938 200.859375 290.046875 199.554688 290.441406 C 198.253906 290.839844 196.933594 291.171875 195.597656 291.4375 C 194.261719 291.703125 192.914062 291.90625 191.558594 292.039062 C 190.203125 292.175781 188.84375 292.242188 187.484375 292.246094 Z M 187.484375 292.246094 " fill-opacity="1" fill-rule="nonzero"/><path fill="#35d2bf" d="M 187.484375 188.40625 C 185.703125 188.40625 183.929688 188.492188 182.15625 188.667969 C 180.386719 188.839844 178.625 189.101562 176.882812 189.449219 C 175.136719 189.796875 173.410156 190.226562 171.707031 190.742188 C 170.003906 191.261719 168.332031 191.859375 166.6875 192.539062 C 165.042969 193.222656 163.433594 193.980469 161.867188 194.820312 C 160.296875 195.660156 158.769531 196.574219 157.289062 197.5625 C 155.8125 198.550781 154.382812 199.609375 153.007812 200.738281 C 151.632812 201.867188 150.3125 203.058594 149.054688 204.320312 C 147.796875 205.578125 146.601562 206.894531 145.472656 208.269531 C 144.34375 209.644531 143.285156 211.074219 142.296875 212.554688 C 141.308594 214.035156 140.394531 215.558594 139.554688 217.128906 C 138.714844 218.699219 137.957031 220.304688 137.273438 221.949219 C 136.59375 223.59375 135.996094 225.265625 135.476562 226.96875 C 134.960938 228.671875 134.527344 230.398438 134.183594 232.144531 C 133.835938 233.886719 133.574219 235.648438 133.398438 237.417969 C 133.226562 239.191406 133.136719 240.964844 133.136719 242.746094 C 133.136719 244.523438 133.226562 246.300781 133.398438 248.070312 C 133.574219 249.84375 133.835938 251.601562 134.183594 253.347656 C 134.527344 255.09375 134.960938 256.816406 135.476562 258.519531 C 135.996094 260.222656 136.59375 261.898438 137.273438 263.542969 C 137.957031 265.183594 138.714844 266.792969 139.554688 268.363281 C 140.394531 269.929688 141.308594 271.457031 142.296875 272.9375 C 143.285156 274.414062 144.34375 275.84375 145.472656 277.21875 C 146.601562 278.59375 147.796875 279.914062 149.054688 281.171875 C 150.3125 282.429688 151.632812 283.625 153.007812 284.753906 C 154.382812 285.882812 155.8125 286.941406 157.289062 287.929688 C 158.769531 288.917969 160.296875 289.832031 161.867188 290.671875 C 163.433594 291.507812 165.042969 292.269531 166.6875 292.949219 C 168.332031 293.632812 170.003906 294.230469 171.707031 294.746094 C 173.410156 295.261719 175.136719 295.695312 176.882812 296.042969 C 178.625 296.386719 180.386719 296.648438 182.15625 296.824219 C 183.929688 296.996094 185.703125 297.085938 187.484375 297.085938 C 189.261719 297.085938 191.039062 296.996094 192.808594 296.824219 C 194.582031 296.648438 196.339844 296.386719 198.085938 296.039062 C 199.832031 295.691406 201.554688 295.257812 203.257812 294.742188 C 204.960938 294.226562 206.632812 293.625 208.277344 292.945312 C 209.921875 292.265625 211.53125 291.503906 213.101562 290.664062 C 214.667969 289.824219 216.195312 288.910156 217.671875 287.921875 C 219.152344 286.933594 220.582031 285.875 221.957031 284.746094 C 223.332031 283.617188 224.648438 282.421875 225.90625 281.164062 C 227.164062 279.902344 228.359375 278.585938 229.488281 277.210938 C 230.617188 275.835938 231.675781 274.40625 232.664062 272.925781 C 233.652344 271.445312 234.566406 269.921875 235.40625 268.351562 C 236.242188 266.78125 237.003906 265.175781 237.683594 263.53125 C 238.367188 261.886719 238.964844 260.210938 239.480469 258.507812 C 239.996094 256.804688 240.429688 255.082031 240.773438 253.335938 C 241.121094 251.589844 241.382812 249.832031 241.554688 248.058594 C 241.730469 246.289062 241.816406 244.511719 241.816406 242.734375 C 241.816406 240.953125 241.726562 239.179688 241.546875 237.410156 C 241.371094 235.640625 241.109375 233.882812 240.761719 232.140625 C 240.410156 230.394531 239.980469 228.671875 239.460938 226.96875 C 238.941406 225.269531 238.34375 223.597656 237.660156 221.953125 C 236.980469 220.308594 236.21875 218.703125 235.378906 217.136719 C 234.539062 215.566406 233.625 214.042969 232.636719 212.566406 C 231.648438 211.085938 230.589844 209.660156 229.460938 208.285156 C 228.332031 206.910156 227.140625 205.59375 225.882812 204.335938 C 224.625 203.078125 223.308594 201.886719 221.933594 200.757812 C 220.558594 199.628906 219.128906 198.570312 217.652344 197.582031 C 216.171875 196.59375 214.648438 195.679688 213.082031 194.839844 C 211.511719 194 209.90625 193.242188 208.265625 192.558594 C 206.621094 191.878906 204.949219 191.277344 203.246094 190.761719 C 201.546875 190.242188 199.820312 189.808594 198.078125 189.460938 C 196.332031 189.113281 194.578125 188.847656 192.804688 188.671875 C 191.035156 188.496094 189.261719 188.40625 187.484375 188.40625 Z M 187.484375 294.789062 C 185.777344 294.789062 184.078125 294.707031 182.382812 294.539062 C 180.683594 294.371094 179 294.121094 177.328125 293.789062 C 175.65625 293.457031 174.003906 293.042969 172.375 292.546875 C 170.742188 292.054688 169.140625 291.480469 167.5625 290.828125 C 165.988281 290.175781 164.449219 289.449219 162.945312 288.644531 C 161.441406 287.839844 159.984375 286.964844 158.566406 286.019531 C 157.148438 285.074219 155.78125 284.058594 154.460938 282.976562 C 153.144531 281.894531 151.882812 280.753906 150.675781 279.546875 C 149.472656 278.34375 148.328125 277.082031 147.246094 275.761719 C 146.164062 274.445312 145.152344 273.078125 144.203125 271.660156 C 143.257812 270.242188 142.378906 268.785156 141.578125 267.28125 C 140.773438 265.777344 140.046875 264.238281 139.394531 262.664062 C 138.738281 261.089844 138.167969 259.484375 137.671875 257.855469 C 137.175781 256.222656 136.761719 254.570312 136.429688 252.898438 C 136.097656 251.226562 135.847656 249.542969 135.679688 247.847656 C 135.511719 246.148438 135.429688 244.449219 135.429688 242.746094 C 135.429688 241.039062 135.511719 239.339844 135.679688 237.644531 C 135.84375 235.945312 136.09375 234.261719 136.425781 232.589844 C 136.761719 230.917969 137.171875 229.265625 137.667969 227.636719 C 138.164062 226.003906 138.734375 224.402344 139.386719 222.824219 C 140.039062 221.25 140.769531 219.710938 141.570312 218.207031 C 142.375 216.703125 143.25 215.246094 144.195312 213.828125 C 145.144531 212.410156 146.15625 211.042969 147.238281 209.722656 C 148.320312 208.40625 149.464844 207.144531 150.667969 205.9375 C 151.875 204.734375 153.136719 203.589844 154.453125 202.507812 C 155.769531 201.425781 157.136719 200.414062 158.554688 199.464844 C 159.972656 198.519531 161.433594 197.640625 162.9375 196.839844 C 164.441406 196.035156 165.980469 195.308594 167.554688 194.652344 C 169.128906 194 170.730469 193.429688 172.363281 192.933594 C 173.996094 192.4375 175.644531 192.023438 177.316406 191.691406 C 178.988281 191.359375 180.671875 191.109375 182.371094 190.941406 C 184.066406 190.773438 185.765625 190.691406 187.472656 190.691406 C 189.175781 190.691406 190.878906 190.773438 192.574219 190.941406 C 194.269531 191.105469 195.953125 191.355469 197.625 191.6875 C 199.296875 192.019531 200.949219 192.433594 202.582031 192.929688 C 204.210938 193.425781 205.816406 193.996094 207.390625 194.648438 C 208.964844 195.300781 210.503906 196.03125 212.007812 196.832031 C 213.511719 197.636719 214.972656 198.511719 216.390625 199.457031 C 217.808594 200.40625 219.175781 201.417969 220.492188 202.5 C 221.808594 203.582031 223.070312 204.726562 224.277344 205.929688 C 225.484375 207.136719 226.625 208.398438 227.707031 209.714844 C 228.789062 211.03125 229.804688 212.398438 230.75 213.816406 C 231.699219 215.234375 232.574219 216.695312 233.378906 218.199219 C 234.183594 219.703125 234.910156 221.242188 235.5625 222.816406 C 236.214844 224.390625 236.789062 225.992188 237.285156 227.625 C 237.777344 229.253906 238.191406 230.90625 238.523438 232.578125 C 238.859375 234.25 239.109375 235.933594 239.273438 237.632812 C 239.441406 239.328125 239.527344 241.027344 239.527344 242.734375 C 239.523438 244.4375 239.4375 246.136719 239.269531 247.832031 C 239.101562 249.527344 238.851562 251.210938 238.515625 252.882812 C 238.183594 254.554688 237.769531 256.207031 237.273438 257.835938 C 236.777344 259.464844 236.203125 261.070312 235.550781 262.640625 C 234.898438 264.214844 234.167969 265.753906 233.363281 267.257812 C 232.5625 268.761719 231.6875 270.21875 230.738281 271.636719 C 229.792969 273.054688 228.777344 274.421875 227.695312 275.738281 C 226.613281 277.054688 225.472656 278.316406 224.265625 279.519531 C 223.0625 280.726562 221.800781 281.871094 220.484375 282.949219 C 219.167969 284.03125 217.800781 285.046875 216.382812 285.992188 C 214.96875 286.941406 213.507812 287.816406 212.003906 288.621094 C 210.503906 289.425781 208.964844 290.152344 207.390625 290.808594 C 205.816406 291.460938 204.214844 292.035156 202.585938 292.53125 C 200.953125 293.027344 199.304688 293.441406 197.632812 293.777344 C 195.960938 294.109375 194.277344 294.363281 192.582031 294.53125 C 190.886719 294.699219 189.1875 294.785156 187.484375 294.789062 Z M 187.484375 294.789062 " fill-opacity="1" fill-rule="nonzero"/><path fill="#35d2bf" d="M 187.484375 170.070312 C 186.421875 170.070312 185.363281 170.09375 184.304688 170.148438 C 183.246094 170.199219 182.1875 170.277344 181.132812 170.378906 C 180.078125 170.484375 179.027344 170.613281 177.976562 170.769531 C 176.929688 170.925781 175.886719 171.105469 174.84375 171.3125 C 173.804688 171.519531 172.773438 171.753906 171.742188 172.011719 C 170.714844 172.265625 169.691406 172.550781 168.679688 172.859375 C 167.664062 173.164062 166.65625 173.5 165.660156 173.855469 C 164.660156 174.210938 163.671875 174.59375 162.691406 175 C 161.714844 175.40625 160.746094 175.835938 159.785156 176.289062 C 158.828125 176.742188 157.882812 177.21875 156.945312 177.71875 C 156.011719 178.21875 155.089844 178.738281 154.179688 179.285156 C 153.269531 179.828125 152.375 180.398438 151.492188 180.984375 C 150.613281 181.574219 149.746094 182.183594 148.894531 182.816406 C 148.042969 183.449219 147.207031 184.101562 146.386719 184.773438 C 145.566406 185.445312 144.765625 186.136719 143.980469 186.847656 C 143.195312 187.5625 142.425781 188.292969 141.675781 189.042969 C 140.925781 189.792969 140.195312 190.558594 139.484375 191.34375 C 138.773438 192.128906 138.082031 192.933594 137.40625 193.753906 C 136.734375 194.570312 136.082031 195.40625 135.453125 196.257812 C 134.820312 197.109375 134.210938 197.976562 133.621094 198.859375 C 133.03125 199.738281 132.464844 200.636719 131.921875 201.542969 C 131.375 202.453125 130.851562 203.375 130.351562 204.3125 C 129.851562 205.246094 129.375 206.191406 128.921875 207.152344 C 128.46875 208.109375 128.039062 209.078125 127.636719 210.058594 C 127.230469 211.039062 126.847656 212.027344 126.492188 213.023438 C 126.132812 214.023438 125.800781 215.027344 125.492188 216.042969 C 125.183594 217.058594 124.902344 218.078125 124.644531 219.109375 C 124.386719 220.136719 124.15625 221.171875 123.949219 222.210938 C 123.742188 223.25 123.5625 224.292969 123.40625 225.34375 C 123.25 226.390625 123.121094 227.445312 123.015625 228.5 C 122.910156 229.554688 122.832031 230.609375 122.78125 231.667969 C 122.730469 232.726562 122.703125 233.789062 122.703125 234.847656 C 122.703125 235.90625 122.730469 236.96875 122.78125 238.027344 C 122.832031 239.085938 122.910156 240.140625 123.015625 241.199219 C 123.121094 242.253906 123.25 243.304688 123.40625 244.351562 C 123.5625 245.402344 123.742188 246.445312 123.949219 247.484375 C 124.15625 248.527344 124.386719 249.558594 124.644531 250.589844 C 124.902344 251.617188 125.183594 252.636719 125.492188 253.652344 C 125.800781 254.667969 126.132812 255.671875 126.492188 256.671875 C 126.847656 257.667969 127.230469 258.660156 127.636719 259.636719 C 128.039062 260.617188 128.46875 261.585938 128.921875 262.542969 C 129.375 263.503906 129.851562 264.449219 130.351562 265.382812 C 130.851562 266.320312 131.375 267.242188 131.921875 268.152344 C 132.464844 269.058594 133.03125 269.957031 133.621094 270.835938 C 134.210938 271.71875 134.820312 272.585938 135.453125 273.4375 C 136.082031 274.289062 136.734375 275.125 137.40625 275.945312 C 138.082031 276.761719 138.773438 277.566406 139.484375 278.351562 C 140.195312 279.136719 140.925781 279.902344 141.675781 280.652344 C 142.425781 281.402344 143.195312 282.132812 143.980469 282.847656 C 144.765625 283.558594 145.566406 284.25 146.386719 284.921875 C 147.207031 285.59375 148.042969 286.246094 148.894531 286.878906 C 149.746094 287.511719 150.613281 288.121094 151.492188 288.710938 C 152.375 289.300781 153.269531 289.867188 154.179688 290.410156 C 155.089844 290.957031 156.011719 291.476562 156.945312 291.976562 C 157.882812 292.476562 158.828125 292.953125 159.785156 293.40625 C 160.746094 293.859375 161.714844 294.289062 162.691406 294.695312 C 163.671875 295.101562 164.660156 295.484375 165.660156 295.839844 C 166.65625 296.199219 167.664062 296.53125 168.679688 296.835938 C 169.691406 297.144531 170.714844 297.429688 171.742188 297.6875 C 172.773438 297.945312 173.804688 298.175781 174.84375 298.382812 C 175.886719 298.589844 176.929688 298.769531 177.976562 298.925781 C 179.027344 299.082031 180.078125 299.210938 181.132812 299.316406 C 182.1875 299.417969 183.246094 299.496094 184.304688 299.550781 C 185.363281 299.601562 186.421875 299.628906 187.484375 299.628906 C 188.542969 299.628906 189.601562 299.601562 190.660156 299.550781 C 191.71875 299.496094 192.777344 299.417969 193.832031 299.316406 C 194.886719 299.210938 195.941406 299.082031 196.988281 298.925781 C 198.035156 298.769531 199.082031 298.589844 200.121094 298.382812 C 201.160156 298.175781 202.195312 297.945312 203.222656 297.6875 C 204.25 297.429688 205.273438 297.144531 206.289062 296.835938 C 207.300781 296.53125 208.308594 296.199219 209.308594 295.839844 C 210.304688 295.484375 211.292969 295.101562 212.273438 294.695312 C 213.253906 294.289062 214.222656 293.859375 215.179688 293.40625 C 216.136719 292.953125 217.085938 292.476562 218.019531 291.976562 C 218.953125 291.476562 219.878906 290.957031 220.785156 290.410156 C 221.695312 289.867188 222.589844 289.300781 223.472656 288.710938 C 224.355469 288.121094 225.21875 287.511719 226.070312 286.878906 C 226.921875 286.246094 227.757812 285.59375 228.578125 284.921875 C 229.398438 284.25 230.199219 283.558594 230.984375 282.847656 C 231.773438 282.132812 232.539062 281.402344 233.289062 280.652344 C 234.039062 279.902344 234.769531 279.136719 235.480469 278.351562 C 236.195312 277.566406 236.886719 276.761719 237.558594 275.945312 C 238.230469 275.125 238.882812 274.289062 239.515625 273.4375 C 240.144531 272.585938 240.757812 271.71875 241.34375 270.835938 C 241.933594 269.957031 242.5 269.058594 243.046875 268.152344 C 243.589844 267.242188 244.113281 266.320312 244.613281 265.382812 C 245.113281 264.449219 245.589844 263.503906 246.042969 262.542969 C 246.496094 261.585938 246.925781 260.617188 247.332031 259.636719 C 247.738281 258.660156 248.117188 257.667969 248.476562 256.671875 C 248.832031 255.671875 249.164062 254.667969 249.472656 253.652344 C 249.78125 252.636719 250.0625 251.617188 250.320312 250.589844 C 250.578125 249.558594 250.8125 248.527344 251.019531 247.484375 C 251.226562 246.445312 251.40625 245.402344 251.5625 244.351562 C 251.71875 243.304688 251.847656 242.253906 251.949219 241.199219 C 252.054688 240.140625 252.132812 239.085938 252.183594 238.027344 C 252.238281 236.96875 252.261719 235.90625 252.261719 234.847656 C 252.261719 233.789062 252.234375 232.730469 252.179688 231.671875 C 252.128906 230.613281 252.050781 229.554688 251.945312 228.5 C 251.839844 227.445312 251.707031 226.394531 251.550781 225.347656 C 251.394531 224.296875 251.214844 223.253906 251.007812 222.214844 C 250.800781 221.175781 250.566406 220.140625 250.308594 219.113281 C 250.050781 218.085938 249.765625 217.066406 249.457031 216.050781 C 249.148438 215.035156 248.816406 214.03125 248.457031 213.035156 C 248.101562 212.035156 247.71875 211.046875 247.3125 210.070312 C 246.90625 209.089844 246.476562 208.121094 246.023438 207.164062 C 245.570312 206.207031 245.09375 205.257812 244.59375 204.324219 C 244.09375 203.390625 243.570312 202.46875 243.027344 201.558594 C 242.480469 200.652344 241.914062 199.753906 241.324219 198.875 C 240.734375 197.992188 240.125 197.128906 239.492188 196.277344 C 238.863281 195.425781 238.210938 194.589844 237.539062 193.769531 C 236.863281 192.953125 236.171875 192.148438 235.460938 191.363281 C 234.75 190.578125 234.019531 189.8125 233.269531 189.0625 C 232.519531 188.3125 231.753906 187.582031 230.96875 186.871094 C 230.183594 186.160156 229.378906 185.464844 228.558594 184.792969 C 227.742188 184.121094 226.90625 183.46875 226.054688 182.835938 C 225.203125 182.207031 224.335938 181.597656 223.457031 181.007812 C 222.574219 180.417969 221.679688 179.851562 220.769531 179.304688 C 219.863281 178.761719 218.941406 178.238281 218.007812 177.738281 C 217.070312 177.238281 216.125 176.761719 215.167969 176.308594 C 214.210938 175.855469 213.242188 175.425781 212.261719 175.019531 C 211.285156 174.613281 210.296875 174.230469 209.296875 173.871094 C 208.300781 173.515625 207.292969 173.183594 206.28125 172.875 C 205.265625 172.566406 204.246094 172.28125 203.21875 172.023438 C 202.1875 171.765625 201.15625 171.53125 200.117188 171.324219 C 199.078125 171.117188 198.03125 170.933594 196.984375 170.777344 C 195.9375 170.621094 194.886719 170.492188 193.832031 170.386719 C 192.777344 170.28125 191.71875 170.203125 190.660156 170.148438 C 189.601562 170.097656 188.542969 170.070312 187.484375 170.070312 Z M 187.484375 297.335938 C 185.4375 297.335938 183.394531 297.234375 181.359375 297.035156 C 179.320312 296.835938 177.300781 296.535156 175.292969 296.136719 C 173.285156 295.738281 171.300781 295.238281 169.34375 294.644531 C 167.386719 294.050781 165.460938 293.363281 163.570312 292.578125 C 161.679688 291.796875 159.832031 290.921875 158.027344 289.957031 C 156.222656 288.992188 154.46875 287.941406 152.765625 286.804688 C 151.066406 285.667969 149.421875 284.449219 147.839844 283.152344 C 146.257812 281.855469 144.746094 280.480469 143.296875 279.035156 C 141.851562 277.585938 140.476562 276.074219 139.179688 274.492188 C 137.878906 272.910156 136.664062 271.265625 135.527344 269.566406 C 134.390625 267.863281 133.335938 266.109375 132.375 264.304688 C 131.410156 262.5 130.535156 260.652344 129.75 258.761719 C 128.96875 256.871094 128.28125 254.945312 127.683594 252.988281 C 127.089844 251.027344 126.59375 249.046875 126.195312 247.039062 C 125.796875 245.03125 125.496094 243.007812 125.296875 240.972656 C 125.09375 238.9375 124.996094 236.894531 124.996094 234.847656 C 124.996094 232.800781 125.09375 230.757812 125.296875 228.722656 C 125.496094 226.6875 125.796875 224.664062 126.195312 222.65625 C 126.59375 220.648438 127.089844 218.667969 127.683594 216.707031 C 128.28125 214.75 128.96875 212.824219 129.75 210.933594 C 130.535156 209.042969 131.410156 207.195312 132.375 205.390625 C 133.335938 203.585938 134.390625 201.832031 135.527344 200.132812 C 136.664062 198.429688 137.878906 196.789062 139.179688 195.207031 C 140.476562 193.625 141.851562 192.109375 143.296875 190.660156 C 144.746094 189.214844 146.257812 187.84375 147.839844 186.542969 C 149.421875 185.246094 151.066406 184.027344 152.765625 182.890625 C 154.46875 181.753906 156.222656 180.703125 158.027344 179.738281 C 159.832031 178.773438 161.679688 177.898438 163.570312 177.117188 C 165.460938 176.332031 167.386719 175.644531 169.34375 175.050781 C 171.300781 174.457031 173.285156 173.960938 175.292969 173.558594 C 177.300781 173.160156 179.320312 172.859375 181.359375 172.660156 C 183.394531 172.460938 185.4375 172.359375 187.484375 172.359375 C 189.53125 172.359375 191.570312 172.460938 193.609375 172.660156 C 195.644531 172.859375 197.667969 173.160156 199.675781 173.558594 C 201.679688 173.960938 203.664062 174.457031 205.621094 175.050781 C 207.582031 175.644531 209.503906 176.332031 211.398438 177.117188 C 213.289062 177.898438 215.136719 178.773438 216.941406 179.738281 C 218.746094 180.703125 220.5 181.753906 222.199219 182.890625 C 223.902344 184.027344 225.542969 185.246094 227.125 186.542969 C 228.707031 187.84375 230.222656 189.214844 231.667969 190.660156 C 233.117188 192.109375 234.488281 193.625 235.789062 195.207031 C 237.085938 196.789062 238.304688 198.429688 239.441406 200.132812 C 240.578125 201.832031 241.628906 203.585938 242.59375 205.390625 C 243.558594 207.195312 244.433594 209.042969 245.214844 210.933594 C 246 212.824219 246.6875 214.75 247.28125 216.707031 C 247.875 218.667969 248.371094 220.648438 248.769531 222.65625 C 249.171875 224.664062 249.46875 226.6875 249.671875 228.722656 C 249.871094 230.757812 249.972656 232.800781 249.972656 234.847656 C 249.96875 236.894531 249.867188 238.933594 249.664062 240.972656 C 249.460938 243.007812 249.160156 245.027344 248.761719 247.035156 C 248.359375 249.039062 247.859375 251.023438 247.265625 252.980469 C 246.671875 254.9375 245.980469 256.859375 245.195312 258.75 C 244.414062 260.640625 243.539062 262.488281 242.574219 264.292969 C 241.609375 266.09375 240.558594 267.847656 239.417969 269.546875 C 238.28125 271.25 237.066406 272.890625 235.765625 274.472656 C 234.46875 276.054688 233.097656 277.566406 231.648438 279.015625 C 230.203125 280.460938 228.6875 281.832031 227.105469 283.132812 C 225.527344 284.429688 223.882812 285.648438 222.183594 286.785156 C 220.484375 287.921875 218.730469 288.972656 216.925781 289.9375 C 215.121094 290.902344 213.277344 291.777344 211.386719 292.5625 C 209.496094 293.34375 207.574219 294.035156 205.613281 294.628906 C 203.65625 295.226562 201.675781 295.722656 199.667969 296.125 C 197.664062 296.523438 195.640625 296.828125 193.605469 297.03125 C 191.570312 297.230469 189.527344 297.335938 187.484375 297.335938 Z M 187.484375 297.335938 " fill-opacity="1" fill-rule="nonzero"/><path fill="#35d2bf" d="M 187.484375 151.730469 C 146.003906 151.730469 112.257812 185.480469 112.257812 226.949219 C 112.257812 268.421875 146.003906 302.175781 187.484375 302.175781 C 228.960938 302.175781 262.703125 268.429688 262.703125 226.949219 C 262.703125 185.472656 228.957031 151.730469 187.484375 151.730469 Z M 187.484375 299.886719 C 186.289062 299.886719 185.097656 299.855469 183.90625 299.796875 C 182.710938 299.738281 181.523438 299.652344 180.335938 299.535156 C 179.144531 299.417969 177.960938 299.269531 176.78125 299.097656 C 175.601562 298.921875 174.425781 298.71875 173.253906 298.484375 C 172.082031 298.25 170.917969 297.992188 169.761719 297.699219 C 168.601562 297.410156 167.453125 297.09375 166.3125 296.746094 C 165.167969 296.398438 164.035156 296.023438 162.910156 295.625 C 161.789062 295.222656 160.675781 294.792969 159.570312 294.335938 C 158.46875 293.878906 157.378906 293.394531 156.300781 292.882812 C 155.21875 292.375 154.152344 291.839844 153.101562 291.273438 C 152.046875 290.710938 151.011719 290.125 149.984375 289.511719 C 148.960938 288.898438 147.953125 288.257812 146.960938 287.597656 C 145.96875 286.933594 144.992188 286.246094 144.035156 285.535156 C 143.074219 284.824219 142.136719 284.089844 141.210938 283.332031 C 140.289062 282.574219 139.386719 281.796875 138.5 280.996094 C 137.617188 280.191406 136.753906 279.371094 135.910156 278.527344 C 135.066406 277.683594 134.242188 276.816406 133.441406 275.933594 C 132.636719 275.050781 131.859375 274.144531 131.101562 273.222656 C 130.34375 272.300781 129.609375 271.359375 128.898438 270.402344 C 128.1875 269.441406 127.5 268.46875 126.835938 267.476562 C 126.175781 266.480469 125.535156 265.472656 124.921875 264.449219 C 124.308594 263.425781 123.71875 262.386719 123.15625 261.335938 C 122.59375 260.28125 122.058594 259.21875 121.546875 258.136719 C 121.039062 257.058594 120.554688 255.96875 120.097656 254.867188 C 119.640625 253.761719 119.210938 252.648438 118.808594 251.527344 C 118.40625 250.402344 118.03125 249.269531 117.683594 248.125 C 117.339844 246.984375 117.019531 245.835938 116.730469 244.675781 C 116.441406 243.519531 116.179688 242.355469 115.945312 241.183594 C 115.710938 240.011719 115.507812 238.835938 115.332031 237.65625 C 115.160156 236.476562 115.011719 235.292969 114.894531 234.105469 C 114.777344 232.914062 114.691406 231.726562 114.632812 230.535156 C 114.574219 229.339844 114.542969 228.148438 114.542969 226.953125 C 114.542969 225.761719 114.574219 224.566406 114.632812 223.375 C 114.691406 222.183594 114.777344 220.992188 114.894531 219.804688 C 115.011719 218.617188 115.15625 217.433594 115.332031 216.253906 C 115.507812 215.070312 115.710938 213.894531 115.945312 212.726562 C 116.175781 211.554688 116.4375 210.390625 116.726562 209.234375 C 117.019531 208.074219 117.335938 206.925781 117.683594 205.78125 C 118.03125 204.640625 118.402344 203.507812 118.804688 202.382812 C 119.207031 201.257812 119.636719 200.144531 120.09375 199.042969 C 120.550781 197.941406 121.035156 196.851562 121.542969 195.769531 C 122.054688 194.691406 122.589844 193.625 123.152344 192.574219 C 123.714844 191.519531 124.304688 190.480469 124.917969 189.457031 C 125.53125 188.433594 126.171875 187.425781 126.832031 186.433594 C 127.496094 185.441406 128.183594 184.464844 128.894531 183.507812 C 129.605469 182.546875 130.339844 181.605469 131.097656 180.683594 C 131.855469 179.761719 132.632812 178.859375 133.433594 177.972656 C 134.238281 177.089844 135.058594 176.226562 135.902344 175.378906 C 136.746094 174.535156 137.613281 173.714844 138.496094 172.914062 C 139.378906 172.109375 140.285156 171.332031 141.207031 170.574219 C 142.128906 169.816406 143.070312 169.082031 144.027344 168.371094 C 144.988281 167.660156 145.964844 166.972656 146.957031 166.308594 C 147.949219 165.648438 148.957031 165.007812 149.980469 164.394531 C 151.003906 163.78125 152.042969 163.191406 153.09375 162.628906 C 154.148438 162.066406 155.214844 161.53125 156.292969 161.019531 C 157.371094 160.511719 158.460938 160.027344 159.566406 159.570312 C 160.667969 159.113281 161.78125 158.683594 162.90625 158.28125 C 164.027344 157.878906 165.160156 157.503906 166.304688 157.15625 C 167.445312 156.8125 168.597656 156.492188 169.753906 156.203125 C 170.910156 155.914062 172.074219 155.652344 173.246094 155.417969 C 174.417969 155.1875 175.59375 154.980469 176.773438 154.808594 C 177.953125 154.632812 179.140625 154.484375 180.328125 154.367188 C 181.515625 154.25 182.703125 154.164062 183.898438 154.105469 C 185.089844 154.046875 186.28125 154.015625 187.476562 154.015625 C 188.667969 154.015625 189.863281 154.046875 191.054688 154.105469 C 192.246094 154.164062 193.4375 154.25 194.625 154.367188 C 195.8125 154.484375 196.996094 154.632812 198.175781 154.804688 C 199.359375 154.980469 200.535156 155.183594 201.703125 155.417969 C 202.875 155.652344 204.039062 155.914062 205.199219 156.203125 C 206.355469 156.492188 207.503906 156.808594 208.648438 157.15625 C 209.789062 157.503906 210.921875 157.878906 212.046875 158.28125 C 213.171875 158.683594 214.285156 159.113281 215.386719 159.566406 C 216.488281 160.023438 217.582031 160.507812 218.660156 161.019531 C 219.738281 161.527344 220.804688 162.066406 221.855469 162.628906 C 222.910156 163.191406 223.949219 163.777344 224.972656 164.394531 C 225.996094 165.007812 227.003906 165.644531 227.996094 166.308594 C 228.988281 166.972656 229.964844 167.65625 230.921875 168.367188 C 231.882812 169.082031 232.824219 169.8125 233.746094 170.570312 C 234.667969 171.328125 235.570312 172.109375 236.457031 172.910156 C 237.339844 173.710938 238.203125 174.535156 239.050781 175.378906 C 239.894531 176.222656 240.714844 177.085938 241.515625 177.972656 C 242.320312 178.855469 243.097656 179.757812 243.855469 180.679688 C 244.613281 181.605469 245.347656 182.542969 246.058594 183.503906 C 246.769531 184.460938 247.457031 185.4375 248.121094 186.429688 C 248.78125 187.421875 249.421875 188.429688 250.035156 189.453125 C 250.648438 190.480469 251.238281 191.515625 251.800781 192.570312 C 252.363281 193.621094 252.898438 194.6875 253.410156 195.765625 C 253.917969 196.847656 254.402344 197.9375 254.859375 199.039062 C 255.316406 200.144531 255.746094 201.257812 256.148438 202.378906 C 256.550781 203.503906 256.925781 204.636719 257.269531 205.777344 C 257.617188 206.921875 257.9375 208.070312 258.226562 209.230469 C 258.515625 210.386719 258.777344 211.550781 259.011719 212.722656 C 259.242188 213.894531 259.445312 215.070312 259.621094 216.25 C 259.796875 217.429688 259.941406 218.613281 260.058594 219.800781 C 260.175781 220.988281 260.265625 222.179688 260.324219 223.371094 C 260.382812 224.5625 260.410156 225.757812 260.410156 226.949219 C 260.410156 228.144531 260.378906 229.335938 260.320312 230.527344 C 260.261719 231.71875 260.171875 232.910156 260.054688 234.097656 C 259.933594 235.285156 259.789062 236.46875 259.613281 237.648438 C 259.4375 238.828125 259.230469 240.003906 258.996094 241.171875 C 258.761719 242.34375 258.5 243.507812 258.210938 244.664062 C 257.917969 245.820312 257.601562 246.972656 257.253906 248.113281 C 256.90625 249.253906 256.53125 250.386719 256.128906 251.511719 C 255.726562 252.632812 255.296875 253.746094 254.839844 254.847656 C 254.382812 255.949219 253.898438 257.039062 253.386719 258.117188 C 252.875 259.195312 252.339844 260.261719 251.777344 261.3125 C 251.214844 262.367188 250.625 263.402344 250.011719 264.425781 C 249.398438 265.449219 248.757812 266.457031 248.097656 267.449219 C 247.433594 268.441406 246.746094 269.417969 246.035156 270.375 C 245.324219 271.332031 244.589844 272.273438 243.832031 273.195312 C 243.078125 274.117188 242.296875 275.023438 241.496094 275.90625 C 240.695312 276.789062 239.871094 277.652344 239.027344 278.496094 C 238.183594 279.339844 237.320312 280.164062 236.4375 280.964844 C 235.550781 281.765625 234.648438 282.546875 233.726562 283.304688 C 232.804688 284.058594 231.863281 284.792969 230.90625 285.503906 C 229.949219 286.214844 228.972656 286.902344 227.980469 287.566406 C 226.988281 288.230469 225.980469 288.867188 224.957031 289.480469 C 223.9375 290.097656 222.898438 290.683594 221.847656 291.246094 C 220.792969 291.808594 219.730469 292.347656 218.648438 292.859375 C 217.570312 293.367188 216.480469 293.851562 215.378906 294.308594 C 214.277344 294.765625 213.164062 295.199219 212.042969 295.601562 C 210.917969 296.003906 209.785156 296.378906 208.644531 296.726562 C 207.503906 297.074219 206.355469 297.390625 205.195312 297.683594 C 204.039062 297.972656 202.875 298.234375 201.707031 298.46875 C 200.535156 298.703125 199.359375 298.90625 198.179688 299.085938 C 197 299.261719 195.816406 299.40625 194.628906 299.527344 C 193.441406 299.644531 192.253906 299.734375 191.0625 299.792969 C 189.867188 299.851562 188.675781 299.882812 187.484375 299.886719 Z M 187.484375 299.886719 " fill-opacity="1" fill-rule="nonzero"/><path fill="#35d2bf" d="M 187.484375 133.394531 C 140.246094 133.394531 101.820312 171.828125 101.820312 219.058594 C 101.820312 266.292969 140.226562 304.71875 187.484375 304.71875 C 234.738281 304.71875 273.140625 266.292969 273.140625 219.058594 C 273.140625 171.828125 234.714844 133.394531 187.484375 133.394531 Z M 187.484375 302.425781 C 141.511719 302.425781 104.109375 265.027344 104.109375 219.058594 C 104.109375 173.09375 141.511719 135.6875 187.484375 135.6875 C 233.457031 135.6875 270.851562 173.085938 270.851562 219.058594 C 270.851562 265.03125 233.449219 302.425781 187.484375 302.425781 Z M 187.484375 302.425781 " fill-opacity="1" fill-rule="nonzero"/><path fill="#35d2bf" d="M 187.484375 115.058594 C 134.5 115.058594 91.378906 158.175781 91.378906 211.164062 C 91.378906 264.152344 134.5 307.265625 187.484375 307.265625 C 240.464844 307.265625 283.582031 264.15625 283.582031 211.164062 C 283.582031 158.167969 240.472656 115.058594 187.484375 115.058594 Z M 187.484375 304.976562 C 135.753906 304.976562 93.671875 262.890625 93.671875 211.164062 C 93.671875 159.433594 135.753906 117.347656 187.484375 117.347656 C 239.210938 117.347656 281.289062 159.433594 281.289062 211.164062 C 281.289062 262.890625 239.210938 304.976562 187.484375 304.976562 Z M 187.484375 304.976562 " fill-opacity="1" fill-rule="nonzero"/><path fill="#35d2bf" d="M 187.484375 96.707031 C 128.734375 96.707031 80.933594 144.523438 80.933594 203.269531 C 80.933594 262.019531 128.734375 309.785156 187.484375 309.785156 C 246.230469 309.785156 293.996094 261.992188 293.996094 203.269531 C 293.996094 144.550781 246.226562 96.707031 187.484375 96.707031 Z M 187.484375 307.5 C 129.992188 307.5 83.226562 260.730469 83.226562 203.277344 C 83.226562 145.820312 129.992188 98.996094 187.484375 98.996094 C 244.972656 98.996094 291.707031 145.757812 291.707031 203.25 C 291.707031 260.738281 244.96875 307.523438 187.484375 307.523438 Z M 187.484375 307.5 " fill-opacity="1" fill-rule="nonzero"/><path fill="#35d2bf" d="M 187.484375 78.378906 C 122.972656 78.378906 70.496094 130.871094 70.496094 195.375 C 70.496094 259.878906 122.972656 312.359375 187.484375 312.359375 C 251.992188 312.359375 304.464844 259.878906 304.464844 195.375 C 304.464844 130.871094 251.988281 78.378906 187.484375 78.378906 Z M 187.484375 310.054688 C 124.238281 310.054688 72.785156 258.609375 72.785156 195.363281 C 72.785156 132.117188 124.238281 80.671875 187.484375 80.671875 C 250.726562 80.671875 302.175781 132.136719 302.175781 195.375 C 302.175781 258.613281 250.75 310.066406 187.484375 310.066406 Z M 187.484375 310.054688 " fill-opacity="1" fill-rule="nonzero"/><path fill="#35d2bf" d="M 277.585938 97.375 C 276.109375 95.90625 274.597656 94.472656 273.050781 93.078125 C 271.507812 91.683594 269.925781 90.328125 268.316406 89.011719 C 266.703125 87.691406 265.058594 86.414062 263.382812 85.179688 C 261.707031 83.941406 260.003906 82.746094 258.269531 81.59375 C 256.535156 80.4375 254.773438 79.328125 252.988281 78.261719 C 251.199219 77.195312 249.386719 76.171875 247.546875 75.195312 C 245.707031 74.214844 243.847656 73.28125 241.964844 72.394531 C 240.078125 71.507812 238.175781 70.667969 236.25 69.875 C 234.324219 69.082031 232.378906 68.335938 230.417969 67.636719 C 228.457031 66.9375 226.480469 66.289062 224.484375 65.6875 C 222.492188 65.085938 220.484375 64.535156 218.464844 64.03125 C 216.441406 63.527344 214.410156 63.074219 212.367188 62.671875 C 210.324219 62.269531 208.273438 61.914062 206.210938 61.613281 C 204.152344 61.308594 202.085938 61.058594 200.011719 60.855469 C 197.941406 60.65625 195.863281 60.503906 193.785156 60.40625 C 191.703125 60.304688 189.625 60.257812 187.539062 60.257812 C 185.457031 60.261719 183.378906 60.3125 181.296875 60.417969 C 179.21875 60.523438 177.140625 60.679688 175.070312 60.882812 C 172.996094 61.089844 170.929688 61.347656 168.871094 61.65625 C 166.8125 61.960938 164.761719 62.320312 162.71875 62.726562 C 160.675781 63.136719 158.644531 63.59375 156.625 64.101562 C 154.605469 64.609375 152.601562 65.164062 150.609375 65.773438 C 148.617188 66.378906 146.640625 67.03125 144.679688 67.734375 C 142.71875 68.4375 140.777344 69.1875 138.855469 69.984375 C 136.929688 70.785156 135.027344 71.628906 133.144531 72.519531 C 131.265625 73.410156 129.40625 74.347656 127.570312 75.332031 C 125.734375 76.3125 123.921875 77.339844 122.136719 78.410156 C 120.351562 79.484375 118.59375 80.597656 116.859375 81.753906 C 115.128906 82.910156 113.429688 84.109375 111.753906 85.351562 C 110.082031 86.59375 108.441406 87.875 106.832031 89.195312 C 105.222656 90.515625 103.648438 91.875 102.105469 93.273438 C 100.5625 94.671875 99.054688 96.109375 97.582031 97.582031 C 96.109375 99.054688 94.671875 100.5625 93.273438 102.105469 C 91.875 103.648438 90.515625 105.222656 89.195312 106.832031 C 87.875 108.441406 86.59375 110.082031 85.351562 111.753906 C 84.109375 113.429688 82.910156 115.128906 81.753906 116.859375 C 80.597656 118.59375 79.484375 120.351562 78.410156 122.136719 C 77.339844 123.921875 76.3125 125.734375 75.332031 127.570312 C 74.347656 129.40625 73.410156 131.265625 72.519531 133.144531 C 71.628906 135.027344 70.785156 136.929688 69.984375 138.855469 C 69.1875 140.777344 68.4375 142.71875 67.734375 144.679688 C 67.03125 146.640625 66.378906 148.617188 65.773438 150.609375 C 65.164062 152.601562 64.609375 154.605469 64.101562 156.625 C 63.59375 158.644531 63.136719 160.675781 62.726562 162.71875 C 62.320312 164.761719 61.960938 166.8125 61.65625 168.871094 C 61.347656 170.929688 61.089844 172.996094 60.882812 175.070312 C 60.679688 177.140625 60.523438 179.21875 60.417969 181.296875 C 60.3125 183.378906 60.261719 185.457031 60.257812 187.539062 C 60.257812 189.625 60.304688 191.703125 60.40625 193.785156 C 60.503906 195.863281 60.65625 197.941406 60.855469 200.011719 C 61.058594 202.085938 61.308594 204.152344 61.613281 206.210938 C 61.914062 208.273438 62.269531 210.324219 62.671875 212.367188 C 63.074219 214.410156 63.527344 216.441406 64.03125 218.464844 C 64.535156 220.484375 65.085938 222.492188 65.6875 224.484375 C 66.289062 226.480469 66.9375 228.457031 67.636719 230.417969 C 68.335938 232.378906 69.082031 234.324219 69.875 236.25 C 70.667969 238.175781 71.507812 240.078125 72.394531 241.964844 C 73.28125 243.847656 74.214844 245.707031 75.195312 247.546875 C 76.171875 249.386719 77.195312 251.199219 78.261719 252.988281 C 79.328125 254.773438 80.4375 256.535156 81.59375 258.269531 C 82.746094 260.003906 83.941406 261.707031 85.179688 263.382812 C 86.414062 265.058594 87.691406 266.703125 89.011719 268.316406 C 90.328125 269.925781 91.683594 271.507812 93.078125 273.050781 C 94.472656 274.597656 95.90625 276.109375 97.375 277.585938 C 98.851562 279.054688 100.363281 280.488281 101.90625 281.882812 C 103.453125 283.277344 105.035156 284.632812 106.644531 285.949219 C 108.257812 287.269531 109.902344 288.546875 111.578125 289.78125 C 113.253906 291.019531 114.957031 292.214844 116.691406 293.367188 C 118.425781 294.523438 120.1875 295.632812 121.972656 296.699219 C 123.761719 297.765625 125.574219 298.789062 127.414062 299.765625 C 129.253906 300.746094 131.113281 301.679688 132.996094 302.566406 C 134.882812 303.453125 136.785156 304.292969 138.710938 305.085938 C 140.636719 305.878906 142.582031 306.625 144.542969 307.324219 C 146.503906 308.023438 148.480469 308.671875 150.476562 309.273438 C 152.46875 309.875 154.476562 310.425781 156.496094 310.929688 C 158.519531 311.433594 160.550781 311.886719 162.59375 312.289062 C 164.636719 312.691406 166.6875 313.046875 168.746094 313.347656 C 170.808594 313.652344 172.875 313.902344 174.945312 314.105469 C 177.019531 314.304688 179.097656 314.457031 181.175781 314.554688 C 183.257812 314.65625 185.335938 314.703125 187.417969 314.703125 C 189.503906 314.699219 191.582031 314.644531 193.664062 314.542969 C 195.742188 314.4375 197.820312 314.28125 199.890625 314.074219 C 201.964844 313.871094 204.027344 313.613281 206.089844 313.304688 C 208.148438 313 210.199219 312.640625 212.242188 312.230469 C 214.285156 311.824219 216.3125 311.367188 218.332031 310.859375 C 220.351562 310.351562 222.359375 309.792969 224.351562 309.1875 C 226.34375 308.582031 228.320312 307.929688 230.28125 307.226562 C 232.242188 306.523438 234.183594 305.773438 236.105469 304.972656 C 238.03125 304.175781 239.933594 303.332031 241.8125 302.441406 C 243.695312 301.550781 245.554688 300.613281 247.390625 299.628906 C 249.226562 298.648438 251.039062 297.621094 252.824219 296.550781 C 254.609375 295.476562 256.367188 294.363281 258.101562 293.207031 C 259.832031 292.050781 261.53125 290.851562 263.203125 289.609375 C 264.878906 288.367188 266.519531 287.085938 268.128906 285.765625 C 269.738281 284.445312 271.3125 283.085938 272.855469 281.6875 C 274.398438 280.289062 275.90625 278.851562 277.378906 277.378906 C 278.851562 275.90625 280.289062 274.398438 281.6875 272.855469 C 283.085938 271.3125 284.445312 269.738281 285.765625 268.128906 C 287.085938 266.519531 288.367188 264.878906 289.609375 263.203125 C 290.851562 261.53125 292.050781 259.832031 293.207031 258.101562 C 294.363281 256.367188 295.476562 254.609375 296.550781 252.824219 C 297.621094 251.039062 298.648438 249.226562 299.628906 247.390625 C 300.613281 245.554688 301.550781 243.695312 302.441406 241.8125 C 303.332031 239.933594 304.175781 238.03125 304.972656 236.105469 C 305.773438 234.183594 306.523438 232.242188 307.226562 230.28125 C 307.929688 228.320312 308.582031 226.34375 309.1875 224.351562 C 309.792969 222.359375 310.351562 220.351562 310.859375 218.332031 C 311.367188 216.3125 311.824219 214.285156 312.230469 212.242188 C 312.640625 210.199219 313 208.148438 313.304688 206.089844 C 313.613281 204.027344 313.871094 201.964844 314.074219 199.890625 C 314.28125 197.820312 314.4375 195.742188 314.542969 193.664062 C 314.644531 191.582031 314.699219 189.503906 314.703125 187.417969 C 314.703125 185.335938 314.65625 183.257812 314.554688 181.175781 C 314.457031 179.097656 314.304688 177.019531 314.105469 174.945312 C 313.902344 172.875 313.652344 170.808594 313.347656 168.746094 C 313.046875 166.6875 312.691406 164.636719 312.289062 162.59375 C 311.886719 160.550781 311.433594 158.519531 310.929688 156.496094 C 310.425781 154.476562 309.875 152.46875 309.273438 150.476562 C 308.671875 148.480469 308.023438 146.503906 307.324219 144.542969 C 306.625 142.582031 305.878906 140.636719 305.085938 138.710938 C 304.292969 136.785156 303.453125 134.882812 302.566406 132.996094 C 301.679688 131.113281 300.746094 129.253906 299.765625 127.414062 C 298.789062 125.574219 297.765625 123.761719 296.699219 121.972656 C 295.632812 120.1875 294.523438 118.425781 293.367188 116.691406 C 292.214844 114.957031 291.019531 113.253906 289.78125 111.578125 C 288.546875 109.902344 287.269531 108.257812 285.949219 106.644531 C 284.632812 105.035156 283.277344 103.453125 281.882812 101.90625 C 280.488281 100.363281 279.054688 98.851562 277.585938 97.375 Z M 275.949219 275.949219 C 274.492188 277.359375 273.003906 278.738281 271.480469 280.078125 C 269.957031 281.417969 268.402344 282.722656 266.816406 283.988281 C 265.230469 285.25 263.617188 286.476562 261.972656 287.664062 C 260.324219 288.851562 258.652344 289.996094 256.949219 291.101562 C 255.25 292.207031 253.523438 293.269531 251.769531 294.289062 C 250.015625 295.3125 248.238281 296.289062 246.4375 297.222656 C 244.640625 298.160156 242.816406 299.050781 240.972656 299.894531 C 239.128906 300.742188 237.265625 301.542969 235.382812 302.296875 C 233.5 303.054688 231.601562 303.761719 229.683594 304.425781 C 227.765625 305.089844 225.832031 305.703125 223.886719 306.273438 C 221.9375 306.84375 219.980469 307.363281 218.007812 307.835938 C 216.035156 308.3125 214.050781 308.738281 212.058594 309.113281 C 210.066406 309.492188 208.0625 309.820312 206.054688 310.101562 C 204.046875 310.378906 202.03125 310.609375 200.011719 310.792969 C 197.988281 310.976562 195.964844 311.109375 193.9375 311.191406 C 191.914062 311.273438 189.882812 311.308594 187.855469 311.292969 C 185.828125 311.28125 183.800781 311.214844 181.773438 311.101562 C 179.75 310.988281 177.726562 310.824219 175.710938 310.613281 C 173.691406 310.402344 171.679688 310.140625 169.675781 309.832031 C 167.671875 309.519531 165.675781 309.164062 163.6875 308.757812 C 161.699219 308.347656 159.722656 307.894531 157.757812 307.390625 C 155.792969 306.886719 153.84375 306.339844 151.902344 305.738281 C 149.964844 305.140625 148.042969 304.496094 146.136719 303.804688 C 144.226562 303.113281 142.339844 302.378906 140.46875 301.59375 C 138.59375 300.8125 136.746094 299.984375 134.914062 299.109375 C 133.082031 298.234375 131.273438 297.320312 129.488281 296.359375 C 127.699219 295.394531 125.9375 294.390625 124.199219 293.34375 C 122.464844 292.296875 120.753906 291.210938 119.066406 290.078125 C 117.382812 288.949219 115.726562 287.777344 114.097656 286.566406 C 112.472656 285.359375 110.875 284.109375 109.308594 282.820312 C 107.738281 281.53125 106.207031 280.207031 104.703125 278.84375 C 103.199219 277.480469 101.730469 276.082031 100.296875 274.644531 C 98.863281 273.210938 97.464844 271.742188 96.101562 270.242188 C 94.738281 268.738281 93.414062 267.203125 92.125 265.636719 C 90.835938 264.070312 89.585938 262.472656 88.375 260.84375 C 87.164062 259.214844 85.996094 257.558594 84.863281 255.875 C 83.734375 254.191406 82.644531 252.480469 81.597656 250.742188 C 80.550781 249.003906 79.546875 247.242188 78.585938 245.457031 C 77.625 243.667969 76.707031 241.859375 75.835938 240.03125 C 74.960938 238.199219 74.132812 236.347656 73.347656 234.476562 C 72.566406 232.605469 71.828125 230.714844 71.136719 228.808594 C 70.445312 226.902344 69.800781 224.980469 69.203125 223.039062 C 68.605469 221.101562 68.054688 219.148438 67.550781 217.183594 C 67.050781 215.21875 66.59375 213.242188 66.1875 211.253906 C 65.78125 209.269531 65.421875 207.273438 65.113281 205.265625 C 64.804688 203.261719 64.542969 201.25 64.332031 199.234375 C 64.117188 197.214844 63.957031 195.195312 63.84375 193.167969 C 63.726562 191.144531 63.664062 189.117188 63.648438 187.085938 C 63.632812 185.058594 63.667969 183.03125 63.75 181.003906 C 63.835938 178.976562 63.96875 176.953125 64.148438 174.933594 C 64.332031 172.914062 64.5625 170.898438 64.84375 168.890625 C 65.125 166.878906 65.453125 164.878906 65.828125 162.886719 C 66.207031 160.890625 66.632812 158.910156 67.105469 156.9375 C 67.578125 154.964844 68.101562 153.003906 68.671875 151.058594 C 69.238281 149.109375 69.855469 147.175781 70.519531 145.261719 C 71.179688 143.34375 71.890625 141.441406 72.644531 139.558594 C 73.402344 137.675781 74.203125 135.8125 75.046875 133.96875 C 75.894531 132.125 76.785156 130.304688 77.71875 128.503906 C 78.652344 126.703125 79.632812 124.925781 80.652344 123.175781 C 81.675781 121.421875 82.738281 119.695312 83.84375 117.992188 C 84.945312 116.292969 86.09375 114.617188 87.28125 112.972656 C 88.464844 111.328125 89.691406 109.710938 90.957031 108.125 C 92.222656 106.539062 93.523438 104.984375 94.867188 103.464844 C 96.207031 101.941406 97.582031 100.453125 98.996094 98.996094 C 100.453125 97.582031 101.941406 96.207031 103.464844 94.867188 C 104.984375 93.523438 106.539062 92.222656 108.125 90.957031 C 109.710938 89.691406 111.328125 88.464844 112.972656 87.28125 C 114.617188 86.09375 116.292969 84.945312 117.992188 83.84375 C 119.695312 82.738281 121.421875 81.675781 123.175781 80.652344 C 124.925781 79.632812 126.703125 78.652344 128.503906 77.71875 C 130.304688 76.785156 132.125 75.894531 133.96875 75.046875 C 135.8125 74.203125 137.675781 73.402344 139.558594 72.644531 C 141.441406 71.890625 143.34375 71.179688 145.261719 70.519531 C 147.175781 69.855469 149.109375 69.238281 151.058594 68.671875 C 153.003906 68.101562 154.964844 67.578125 156.9375 67.105469 C 158.910156 66.632812 160.890625 66.207031 162.886719 65.828125 C 164.878906 65.453125 166.878906 65.125 168.890625 64.84375 C 170.898438 64.5625 172.914062 64.332031 174.933594 64.148438 C 176.953125 63.96875 178.976562 63.835938 181.003906 63.75 C 183.03125 63.667969 185.058594 63.632812 187.085938 63.648438 C 189.117188 63.664062 191.144531 63.726562 193.167969 63.84375 C 195.195312 63.957031 197.214844 64.117188 199.234375 64.332031 C 201.25 64.542969 203.261719 64.804688 205.265625 65.113281 C 207.273438 65.421875 209.269531 65.78125 211.253906 66.1875 C 213.242188 66.59375 215.21875 67.050781 217.183594 67.550781 C 219.148438 68.054688 221.101562 68.605469 223.039062 69.203125 C 224.980469 69.800781 226.902344 70.445312 228.808594 71.136719 C 230.714844 71.828125 232.605469 72.566406 234.476562 73.347656 C 236.347656 74.132812 238.199219 74.960938 240.03125 75.835938 C 241.859375 76.707031 243.667969 77.625 245.457031 78.585938 C 247.242188 79.546875 249.003906 80.550781 250.742188 81.597656 C 252.480469 82.644531 254.191406 83.734375 255.875 84.863281 C 257.558594 85.996094 259.214844 87.164062 260.84375 88.375 C 262.472656 89.585938 264.070312 90.835938 265.636719 92.125 C 267.203125 93.414062 268.738281 94.738281 270.242188 96.101562 C 271.742188 97.464844 273.210938 98.863281 274.644531 100.296875 C 276.082031 101.730469 277.480469 103.199219 278.84375 104.703125 C 280.207031 106.207031 281.53125 107.738281 282.820312 109.308594 C 284.109375 110.875 285.359375 112.472656 286.566406 114.097656 C 287.777344 115.726562 288.949219 117.382812 290.078125 119.066406 C 291.210938 120.753906 292.296875 122.464844 293.34375 124.199219 C 294.390625 125.9375 295.394531 127.699219 296.359375 129.488281 C 297.320312 131.273438 298.234375 133.082031 299.109375 134.914062 C 299.984375 136.746094 300.8125 138.59375 301.59375 140.46875 C 302.378906 142.339844 303.113281 144.226562 303.804688 146.136719 C 304.496094 148.042969 305.140625 149.964844 305.738281 151.902344 C 306.339844 153.84375 306.886719 155.792969 307.390625 157.757812 C 307.894531 159.722656 308.347656 161.699219 308.757812 163.6875 C 309.164062 165.675781 309.519531 167.671875 309.832031 169.675781 C 310.140625 171.679688 310.402344 173.691406 310.613281 175.710938 C 310.824219 177.726562 310.988281 179.75 311.101562 181.773438 C 311.214844 183.800781 311.28125 185.828125 311.292969 187.855469 C 311.308594 189.882812 311.273438 191.914062 311.191406 193.9375 C 311.109375 195.964844 310.976562 197.988281 310.792969 200.011719 C 310.613281 202.03125 310.378906 204.046875 310.101562 206.054688 C 309.820312 208.0625 309.492188 210.066406 309.113281 212.058594 C 308.738281 214.050781 308.3125 216.035156 307.835938 218.007812 C 307.363281 219.980469 306.84375 221.941406 306.273438 223.886719 C 305.703125 225.832031 305.089844 227.765625 304.425781 229.683594 C 303.761719 231.601562 303.054688 233.5 302.296875 235.382812 C 301.542969 237.265625 300.742188 239.128906 299.894531 240.972656 C 299.050781 242.816406 298.160156 244.640625 297.222656 246.4375 C 296.289062 248.238281 295.3125 250.015625 294.289062 251.769531 C 293.269531 253.523438 292.207031 255.25 291.101562 256.949219 C 289.996094 258.652344 288.851562 260.324219 287.664062 261.972656 C 286.476562 263.617188 285.25 265.230469 283.988281 266.816406 C 282.722656 268.402344 281.417969 269.957031 280.078125 271.480469 C 278.738281 273.003906 277.359375 274.492188 275.949219 275.949219 Z M 275.949219 275.949219 " fill-opacity="1" fill-rule="nonzero"/></svg>